<svg width="30" height="28" viewBox="0 0 30 28" fill="none" xmlns="http://www.w3.org/2000/svg">
<path d="M16.0833 0C17.724 0.004125 18.5567 0.012375 19.2756 0.031625L19.5585 0.04125C19.8852 0.05225 20.2075 0.0659999 20.5969 0.0824999C22.1485 0.15125 23.2073 0.38225 24.1362 0.721875C25.0987 1.07113 25.9096 1.54413 26.7204 2.30725C27.4623 2.99438 28.0361 3.8259 28.4019 4.74375C28.7621 5.61963 29.0071 6.61788 29.08 8.08225C29.0975 8.448 29.1121 8.75188 29.1237 9.06125L29.1325 9.328C29.1544 10.0045 29.1631 10.7896 29.166 12.3365L29.1675 13.3623V15.1635C29.171 16.1664 29.1599 17.1694 29.134 18.172L29.1252 18.4388C29.1135 18.7481 29.099 19.052 29.0815 19.4178C29.0085 20.8821 28.7606 21.879 28.4019 22.7563C28.0361 23.6741 27.4623 24.5056 26.7204 25.1928C25.9916 25.8922 25.1097 26.4333 24.1362 26.7781C23.2073 27.1178 22.1485 27.3488 20.5969 27.4175L19.5585 27.4588L19.2756 27.467C18.5567 27.4863 17.724 27.4959 16.0833 27.4986L14.9954 27.5H13.0865C12.0223 27.5035 10.9581 27.493 9.89416 27.4684L9.61125 27.4601C9.26505 27.4478 8.91894 27.4336 8.57291 27.4175C7.02125 27.3488 5.9625 27.1178 5.03208 26.7781C4.05912 26.4331 3.17773 25.892 2.44937 25.1928C1.707 24.5058 1.13265 23.6742 0.766455 22.7563C0.406246 21.8804 0.161246 20.8821 0.0883294 19.4178L0.0445795 18.4388L0.037288 18.172C0.0104051 17.1694 -0.00174897 16.1664 0.000829496 15.1635V12.3365C-0.00320702 11.3336 0.00748856 10.3306 0.0329129 9.328L0.0431212 9.06125C0.0547879 8.75188 0.0693712 8.448 0.0868712 8.08225C0.159788 6.61788 0.404788 5.621 0.764996 4.74375C1.13205 3.82552 1.70741 2.99398 2.45083 2.30725C3.17876 1.60813 4.05965 1.0671 5.03208 0.721875C5.9625 0.38225 7.01979 0.15125 8.57291 0.0824999C8.96083 0.0659999 9.28458 0.05225 9.61125 0.04125L9.89416 0.0329999C10.9576 0.00856997 12.0213 -0.00197271 13.085 0.0013749L16.0833 0ZM14.5842 6.875C12.6503 6.875 10.7956 7.59933 9.42818 8.88864C8.06072 10.178 7.2925 11.9266 7.2925 13.75C7.2925 15.5734 8.06072 17.322 9.42818 18.6114C10.7956 19.9007 12.6503 20.625 14.5842 20.625C16.518 20.625 18.3727 19.9007 19.7402 18.6114C21.1076 17.322 21.8758 15.5734 21.8758 13.75C21.8758 11.9266 21.1076 10.178 19.7402 8.88864C18.3727 7.59933 16.518 6.875 14.5842 6.875ZM14.5842 9.625C15.1587 9.62491 15.7276 9.73152 16.2585 9.93874C16.7893 10.146 17.2716 10.4497 17.678 10.8327C18.0843 11.2157 18.4066 11.6704 18.6266 12.1708C18.8465 12.6712 18.9598 13.2076 18.9599 13.7493C18.96 14.291 18.8469 14.8274 18.6271 15.3279C18.4074 15.8284 18.0852 16.2832 17.679 16.6663C17.2728 17.0494 16.7906 17.3534 16.2598 17.5607C15.729 17.7681 15.1602 17.8749 14.5856 17.875C13.4253 17.875 12.3125 17.4404 11.492 16.6668C10.6716 15.8932 10.2106 14.844 10.2106 13.75C10.2106 12.656 10.6716 11.6068 11.492 10.8332C12.3125 10.0596 13.4253 9.625 14.5856 9.625M22.2419 4.8125C21.7584 4.8125 21.2947 4.99358 20.9529 5.31591C20.611 5.63824 20.419 6.07541 20.419 6.53125C20.419 6.98709 20.611 7.42426 20.9529 7.74659C21.2947 8.06892 21.7584 8.25 22.2419 8.25C22.7253 8.25 23.189 8.06892 23.5309 7.74659C23.8727 7.42426 24.0648 6.98709 24.0648 6.53125C24.0648 6.07541 23.8727 5.63824 23.5309 5.31591C23.189 4.99358 22.7253 4.8125 22.2419 4.8125Z" fill="#1E1E1E"/>
</svg>
