<svg width="71" height="65" viewBox="0 0 71 65" fill="none" xmlns="http://www.w3.org/2000/svg">
<path d="M62.8267 14.3228L36.2017 6.19776C35.7462 6.05876 35.2538 6.05876 34.7983 6.19776L8.17332 14.3228C7.73153 14.4576 7.34727 14.7163 7.07499 15.0621C6.80271 15.408 6.65622 15.8236 6.65625 16.2499V36.5624C6.65625 37.1011 6.89001 37.6178 7.30611 37.9987C7.7222 38.3797 8.28655 38.5937 8.875 38.5937C9.46345 38.5937 10.0278 38.3797 10.4439 37.9987C10.86 37.6178 11.0938 37.1011 11.0938 36.5624V19.0683L20.4097 21.9095C17.9346 25.5703 17.1475 29.9808 18.2213 34.1724C19.2951 38.364 22.142 41.9942 26.1369 44.2659C21.1447 46.0585 16.8292 49.3009 13.673 53.7341C13.5089 53.9574 13.3949 54.2084 13.3376 54.4725C13.2804 54.7365 13.281 55.0083 13.3395 55.2721C13.398 55.5359 13.5132 55.7865 13.6784 56.0092C13.8436 56.2319 14.0555 56.4223 14.3018 56.5693C14.5481 56.7164 14.8238 56.8172 15.113 56.8658C15.4022 56.9145 15.6991 56.91 15.9864 56.8527C16.2737 56.7953 16.5457 56.6863 16.7866 56.5319C17.0274 56.3775 17.2324 56.1808 17.3895 55.9532C21.569 50.0829 28.1698 46.7187 35.5 46.7187C42.8302 46.7187 49.431 50.0829 53.6106 55.9532C53.936 56.396 54.4387 56.7038 55.01 56.81C55.5813 56.9161 56.1753 56.8122 56.6635 56.5207C57.1518 56.2291 57.4951 55.7733 57.6193 55.2519C57.7434 54.7304 57.6384 54.1852 57.327 53.7341C54.1708 49.3009 49.8387 46.0585 44.8631 44.2659C48.8542 41.9943 51.6984 38.3665 52.772 34.1779C53.8456 29.9893 53.061 25.5819 50.5903 21.9222L62.8267 18.1897C63.2686 18.055 63.6529 17.7964 63.9253 17.4505C64.1977 17.1046 64.3442 16.689 64.3442 16.2626C64.3442 15.8362 64.1977 15.4206 63.9253 15.0747C63.6529 14.7288 63.2686 14.4702 62.8267 14.3355V14.3228ZM48.8125 30.4687C48.8131 32.3954 48.3147 34.2949 47.3582 36.0112C46.4016 37.7275 45.0142 39.2117 43.3098 40.342C41.6054 41.4724 39.6325 42.2167 37.5531 42.5138C35.4736 42.811 33.3468 42.6525 31.3472 42.0514C29.3476 41.4504 27.5321 40.4239 26.0498 39.0561C24.5674 37.6883 23.4604 36.0183 22.8196 34.183C22.1788 32.3477 22.0224 30.3994 22.3633 28.4981C22.7042 26.5967 23.5326 24.7965 24.7807 23.245L34.7983 26.2919C35.2538 26.4309 35.7462 26.4309 36.2017 26.2919L46.2193 23.245C47.9048 25.3373 48.8136 27.8689 48.8125 30.4687Z" fill="#1E1E1E"/>
</svg>
