<svg width="70" height="56" viewBox="0 0 70 56" fill="none" xmlns="http://www.w3.org/2000/svg">
<path d="M63.1707 42C64.982 42 66.719 41.41 67.9998 40.3598C69.2805 39.3096 70 37.8852 70 36.4V5.6C70 4.11479 69.2805 2.69041 67.9998 1.6402C66.719 0.589998 64.982 0 63.1707 0H27.1805C28.3756 1.708 29.0244 3.64 29.0244 5.6H63.1707V36.4H32.439V42M46.0976 14V19.6H25.6098V56H18.7805V39.2H11.9512V56H5.12195V33.6H0V19.6C0 18.1148 0.71951 16.6904 2.00025 15.6402C3.28098 14.59 5.01803 14 6.82927 14H46.0976ZM22.1951 5.6C22.1951 7.08521 21.4756 8.50959 20.1949 9.5598C18.9141 10.61 17.1771 11.2 15.3659 11.2C13.5546 11.2 11.8176 10.61 10.5368 9.5598C9.25609 8.50959 8.53658 7.08521 8.53658 5.6C8.53658 4.11479 9.25609 2.69041 10.5368 1.6402C11.8176 0.589998 13.5546 0 15.3659 0C17.1771 0 18.9141 0.589998 20.1949 1.6402C21.4756 2.69041 22.1951 4.11479 22.1951 5.6Z" fill="#1E1E1E"/>
</svg>
