<svg width="58" height="51" viewBox="0 0 58 51" fill="none" xmlns="http://www.w3.org/2000/svg">
<path d="M56.1704 8.22925L29.5454 0.104252C29.09 -0.0347507 28.5975 -0.0347507 28.1421 0.104252L1.51707 8.22925C1.07528 8.36408 0.691022 8.62276 0.418743 8.96864C0.146464 9.31452 -3.45079e-05 9.73006 6.09701e-09 10.1564V30.4689C6.09701e-09 31.0076 0.23376 31.5243 0.649857 31.9052C1.06595 32.2861 1.6303 32.5002 2.21875 32.5002C2.8072 32.5002 3.37155 32.2861 3.78764 31.9052C4.20374 31.5243 4.4375 31.0076 4.4375 30.4689V12.9748L13.7535 15.816C11.2783 19.4768 10.4913 23.8872 11.5651 28.0789C12.6388 32.2705 15.4857 35.9007 19.4806 38.1724C14.4884 39.965 10.173 43.2074 7.0168 47.6406C6.85265 47.8639 6.73864 48.1149 6.68138 48.379C6.62412 48.643 6.62476 48.9148 6.68327 49.1786C6.74177 49.4424 6.85697 49.693 7.02216 49.9157C7.18736 50.1384 7.39926 50.3288 7.64554 50.4758C7.89183 50.6229 8.16759 50.7237 8.45679 50.7723C8.74599 50.821 9.04287 50.8165 9.33017 50.7591C9.61746 50.7018 9.88945 50.5928 10.1303 50.4384C10.3712 50.284 10.5761 50.0873 10.7332 49.8597C14.9128 43.9894 21.5136 40.6252 28.8438 40.6252C36.174 40.6252 42.7747 43.9894 46.9543 49.8597C47.2797 50.3025 47.7824 50.6103 48.3537 50.7165C48.925 50.8226 49.519 50.7187 50.0073 50.4272C50.4956 50.1356 50.8389 49.6798 50.963 49.1584C51.0872 48.6369 50.9822 48.0917 50.6707 47.6406C47.5145 43.2074 43.1824 39.965 38.2069 38.1724C42.1979 35.9008 45.0421 32.273 46.1157 28.0844C47.1894 23.8958 46.4048 19.4884 43.934 15.8287L56.1704 12.0962C56.6123 11.9615 56.9967 11.7028 57.2691 11.357C57.5414 11.0111 57.688 10.5955 57.688 10.1691C57.688 9.7427 57.5414 9.32711 57.2691 8.98123C56.9967 8.63534 56.6123 8.3767 56.1704 8.24195V8.22925ZM42.1563 24.3752C42.1569 26.3019 41.6584 28.2014 40.7019 29.9177C39.7454 31.634 38.358 33.1182 36.6536 34.2485C34.9491 35.3789 32.9763 36.1232 30.8968 36.4203C28.8173 36.7175 26.6906 36.559 24.6909 35.9579C22.6913 35.3569 20.8759 34.3304 19.3935 32.9626C17.9112 31.5948 16.8042 29.9247 16.1633 28.0895C15.5225 26.2542 15.3661 24.3059 15.707 22.4046C16.0479 20.5032 16.8764 18.703 18.1244 17.1515L28.1421 20.1984C28.5975 20.3374 29.09 20.3374 29.5454 20.1984L39.5631 17.1515C41.2486 19.2438 42.1574 21.7754 42.1563 24.3752Z" fill="#1E1E1E"/>
</svg>
