<svg width="26" height="25" viewBox="0 0 26 25" fill="none" xmlns="http://www.w3.org/2000/svg">
<path d="M12.9167 0C20.0506 0 25.8334 5.59625 25.8334 12.5C25.8334 19.4037 20.0506 25 12.9167 25C10.634 25.0038 8.39144 24.4192 6.4196 23.3063L0.00518663 25L1.75152 18.79C0.600591 16.8812 -0.00398043 14.71 1.97221e-05 12.5C1.97221e-05 5.59625 5.78281 0 12.9167 0ZM8.51469 6.625L8.25635 6.635C8.08933 6.64614 7.92614 6.68859 7.77585 6.76C7.6358 6.83689 7.50791 6.93287 7.3961 7.045C7.2411 7.18625 7.15327 7.30875 7.05898 7.4275C6.58122 8.02863 6.32398 8.76664 6.32789 9.525C6.33048 10.1375 6.49581 10.7338 6.75414 11.2913C7.28244 12.4187 8.15173 13.6125 9.29873 14.7188C9.57514 14.985 9.84639 15.2525 10.1383 15.5013C11.5636 16.7155 13.2619 17.5912 15.0983 18.0588L15.832 18.1675C16.0709 18.18 16.3099 18.1625 16.5501 18.1512C16.9263 18.1321 17.2935 18.0335 17.6261 17.8625C17.7951 17.7779 17.9602 17.6862 18.1208 17.5875C18.1208 17.5875 18.1755 17.5517 18.2823 17.475C18.4566 17.35 18.5639 17.2612 18.7085 17.115C18.817 17.0067 18.9074 16.8808 18.9798 16.7375C19.0805 16.5338 19.1813 16.145 19.2226 15.8212C19.2536 15.5737 19.2446 15.4388 19.2407 15.355C19.2355 15.2213 19.1206 15.0825 18.9953 15.0238L18.2435 14.6975C18.2435 14.6975 17.1198 14.2238 16.4326 13.9213C16.3607 13.8909 16.2836 13.8736 16.2053 13.87C16.1169 13.8611 16.0275 13.8706 15.9433 13.898C15.8591 13.9254 15.7819 13.97 15.717 14.0287C15.7106 14.0262 15.624 14.0975 14.6901 15.1925C14.6365 15.2622 14.5627 15.3149 14.4781 15.3438C14.3934 15.3728 14.3018 15.3767 14.2148 15.355C14.1306 15.3333 14.0482 15.3057 13.9681 15.2725C13.8079 15.2075 13.7524 15.1825 13.6426 15.1375C12.901 14.8249 12.2146 14.4018 11.6082 13.8838C11.4455 13.7463 11.2944 13.5962 11.1394 13.4513C10.6312 12.9803 10.1884 12.4475 9.82185 11.8663L9.74564 11.7475C9.69173 11.6672 9.64753 11.5813 9.61389 11.4913C9.56481 11.3075 9.69269 11.16 9.69269 11.16C9.69269 11.16 10.0066 10.8275 10.1525 10.6475C10.2946 10.4725 10.4147 10.3025 10.4922 10.1813C10.6446 9.94375 10.6924 9.7 10.6124 9.51125C10.2507 8.65625 9.87696 7.80583 9.49119 6.96C9.41498 6.7925 9.18894 6.6725 8.98356 6.64875C8.91381 6.64042 8.84406 6.63375 8.77431 6.62875C8.60088 6.61912 8.42697 6.62079 8.25377 6.63375L8.51469 6.625Z" fill="#1E1E1E"/>
</svg>
